<svg id="visual" viewBox="0 0 960 540" width="960" height="540" xmlns="http://www.w3.org/2000/svg" xmlns:xlink="http://www.w3.org/1999/xlink" version="1.1"><path d="M0 77L14.5 72.5C29 68 58 59 87.2 57.2C116.3 55.3 145.7 60.7 174.8 61.5C204 62.3 233 58.7 262 60.5C291 62.3 320 69.7 349 74.2C378 78.7 407 80.3 436.2 79.3C465.3 78.3 494.7 74.7 523.8 70.2C553 65.7 582 60.3 611 55.8C640 51.3 669 47.7 698 46.8C727 46 756 48 785.2 48C814.3 48 843.7 46 872.8 43.2C902 40.3 931 36.7 945.5 34.8L960 33L960 0L945.5 0C931 0 902 0 872.8 0C843.7 0 814.3 0 785.2 0C756 0 727 0 698 0C669 0 640 0 611 0C582 0 553 0 523.8 0C494.7 0 465.3 0 436.2 0C407 0 378 0 349 0C320 0 291 0 262 0C233 0 204 0 174.8 0C145.7 0 116.3 0 87.2 0C58 0 29 0 14.5 0L0 0Z" fill="#070708"></path><path d="M0 212L14.5 208.3C29 204.7 58 197.3 87.2 200C116.3 202.7 145.7 215.3 174.8 217.2C204 219 233 210 262 206.3C291 202.7 320 204.3 349 219.7C378 235 407 264 436.2 262.2C465.3 260.3 494.7 227.7 523.8 213.2C553 198.7 582 202.3 611 201.5C640 200.7 669 195.3 698 194.5C727 193.7 756 197.3 785.2 194.7C814.3 192 843.7 183 872.8 196.5C902 210 931 246 945.5 264L960 282L960 31L945.5 32.8C931 34.7 902 38.3 872.8 41.2C843.7 44 814.3 46 785.2 46C756 46 727 44 698 44.8C669 45.7 640 49.3 611 53.8C582 58.3 553 63.7 523.8 68.2C494.7 72.7 465.3 76.3 436.2 77.3C407 78.3 378 76.7 349 72.2C320 67.7 291 60.3 262 58.5C233 56.7 204 60.3 174.8 59.5C145.7 58.7 116.3 53.3 87.2 55.2C58 57 29 66 14.5 70.5L0 75Z" fill="#141417"></path><path d="M0 303L14.5 295C29 287 58 271 87.2 272C116.3 273 145.7 291 174.8 300C204 309 233 309 262 308C291 307 320 305 349 310.3C378 315.7 407 328.3 436.2 318.5C465.3 308.7 494.7 276.3 523.8 265.5C553 254.7 582 265.3 611 268C640 270.7 669 265.3 698 267.2C727 269 756 278 785.2 273.5C814.3 269 843.7 251 872.8 257.3C902 263.7 931 294.3 945.5 309.7L960 325L960 280L945.5 262C931 244 902 208 872.8 194.5C843.7 181 814.3 190 785.2 192.7C756 195.3 727 191.7 698 192.5C669 193.3 640 198.7 611 199.5C582 200.3 553 196.7 523.8 211.2C494.7 225.7 465.3 258.3 436.2 260.2C407 262 378 233 349 217.7C320 202.3 291 200.7 262 204.3C233 208 204 217 174.8 215.2C145.7 213.3 116.3 200.7 87.2 198C58 195.3 29 202.7 14.5 206.3L0 210Z" fill="#2b2b33"></path><path d="M0 428L14.5 419C29 410 58 392 87.2 390.2C116.3 388.3 145.7 402.7 174.8 408.8C204 415 233 413 262 411.2C291 409.3 320 407.7 349 410.5C378 413.3 407 420.7 436.2 416.2C465.3 411.7 494.7 395.3 523.8 378.2C553 361 582 343 611 339.3C640 335.7 669 346.3 698 358C727 369.7 756 382.3 785.2 386C814.3 389.7 843.7 384.3 872.8 392.5C902 400.7 931 422.3 945.5 433.2L960 444L960 323L945.5 307.7C931 292.3 902 261.7 872.8 255.3C843.7 249 814.3 267 785.2 271.5C756 276 727 267 698 265.2C669 263.3 640 268.7 611 266C582 263.3 553 252.7 523.8 263.5C494.7 274.3 465.3 306.7 436.2 316.5C407 326.3 378 313.7 349 308.3C320 303 291 305 262 306C233 307 204 307 174.8 298C145.7 289 116.3 271 87.2 270C58 269 29 285 14.5 293L0 301Z" fill="#141417"></path><path d="M0 541L14.5 541C29 541 58 541 87.2 541C116.3 541 145.7 541 174.8 541C204 541 233 541 262 541C291 541 320 541 349 541C378 541 407 541 436.2 541C465.3 541 494.7 541 523.8 541C553 541 582 541 611 541C640 541 669 541 698 541C727 541 756 541 785.2 541C814.3 541 843.7 541 872.8 541C902 541 931 541 945.5 541L960 541L960 442L945.5 431.2C931 420.3 902 398.7 872.8 390.5C843.7 382.3 814.3 387.7 785.2 384C756 380.3 727 367.7 698 356C669 344.3 640 333.7 611 337.3C582 341 553 359 523.8 376.2C494.7 393.3 465.3 409.7 436.2 414.2C407 418.7 378 411.3 349 408.5C320 405.7 291 407.3 262 409.2C233 411 204 413 174.8 406.8C145.7 400.7 116.3 386.3 87.2 388.2C58 390 29 408 14.5 417L0 426Z" fill="#070708"></path></svg>